<svg width="45" height="40" viewBox="0 0 45 40" fill="none" xmlns="http://www.w3.org/2000/svg">
<path d="M7.40694 13.3313H7.41319L10.8542 11.718C10.9283 11.6703 10.9906 11.6023 11.0353 11.5204C11.08 11.4385 11.1056 11.3452 11.1097 11.2492C11.1058 11.1532 11.0802 11.0598 11.0356 10.9778C10.9909 10.8959 10.9285 10.828 10.8542 10.7805L7.41181 9.16562H7.40694L5.97222 5.2875C5.93385 5.20094 5.8748 5.12813 5.80169 5.07724C5.72858 5.02635 5.64431 4.99939 5.55833 4.99939C5.47236 4.99939 5.38809 5.02635 5.31498 5.07724C5.24187 5.12813 5.18281 5.20094 5.14444 5.2875L3.70694 9.16484H3.70347L0.256944 10.7812C0.182379 10.8286 0.119698 10.8964 0.0747626 10.9784C0.0298269 11.0603 0.00410431 11.1538 0 11.25C0.00415211 11.346 0.0297436 11.4393 0.07441 11.5212C0.119076 11.6031 0.181377 11.6711 0.255556 11.7188L3.69931 13.3281H3.70417L5.13889 17.2078C5.17707 17.2946 5.23606 17.3677 5.30919 17.4187C5.38233 17.4698 5.4667 17.4969 5.55278 17.4969C5.63886 17.4969 5.72323 17.4698 5.79636 17.4187C5.8695 17.3677 5.92848 17.2946 5.96667 17.2078L7.40347 13.3313H7.40694ZM32.7347 36.5164L32.6653 36.4836L32.5958 36.4445C32.1504 36.1933 31.7759 35.8077 31.5141 35.3307C31.2524 34.8538 31.1138 34.3043 31.1138 33.7438C31.1138 33.1832 31.2524 32.6337 31.5141 32.1568C31.7759 31.6798 32.1504 31.2942 32.5958 31.043L32.6653 31.0047L32.7347 30.9711L35.3382 29.75L36.4236 26.8219L36.4521 26.7438L36.4847 26.6695C36.7521 26.0648 37.2194 25.6047 37.759 25.3148C37.759 25.2109 37.7764 25.1047 37.7778 25.0023V11.25C37.7778 10.587 37.5437 9.95107 37.1269 9.48223C36.7102 9.01339 36.1449 8.75 35.5556 8.75C34.9662 8.75 34.401 9.01339 33.9842 9.48223C33.5675 9.95107 33.3333 10.587 33.3333 11.25V16.875C33.3333 17.0408 33.2748 17.1997 33.1706 17.3169C33.0664 17.4342 32.9251 17.5 32.7778 17.5H31.6667C31.5193 17.5 31.378 17.4342 31.2738 17.3169C31.1696 17.1997 31.1111 17.0408 31.1111 16.875V5C31.1111 4.33696 30.877 3.70107 30.4602 3.23223C30.0435 2.76339 29.4783 2.5 28.8889 2.5C28.2995 2.5 27.7343 2.76339 27.3175 3.23223C26.9008 3.70107 26.6667 4.33696 26.6667 5V16.875C26.6667 17.0408 26.6081 17.1997 26.5039 17.3169C26.3998 17.4342 26.2585 17.5 26.1111 17.5H25C24.8527 17.5 24.7113 17.4342 24.6072 17.3169C24.503 17.1997 24.4444 17.0408 24.4444 16.875V2.5C24.4444 1.83696 24.2103 1.20107 23.7936 0.732233C23.3768 0.263392 22.8116 0 22.2222 0C21.6329 0 21.0676 0.263392 20.6509 0.732233C20.2341 1.20107 20 1.83696 20 2.5V16.875C20 17.0408 19.9415 17.1997 19.8373 17.3169C19.7331 17.4342 19.5918 17.5 19.4444 17.5H18.3333C18.186 17.5 18.0447 17.4342 17.9405 17.3169C17.8363 17.1997 17.7778 17.0408 17.7778 16.875V5C17.7778 4.33696 17.5436 3.70107 17.1269 3.23223C16.7102 2.76339 16.1449 2.5 15.5556 2.5C14.9662 2.5 14.401 2.76339 13.9842 3.23223C13.5675 3.70107 13.3333 4.33696 13.3333 5V23.8281L11.6951 21.2898C11.2615 20.6194 10.6089 20.1703 9.88087 20.0412C9.15287 19.9122 8.4091 20.1137 7.81319 20.6016C7.21729 21.0894 6.81805 21.8236 6.70331 22.6426C6.58858 23.4616 6.76774 24.2984 7.20139 24.9688L15.9236 38.4539C16.2328 38.9319 16.6379 39.3211 17.1059 39.5898C17.574 39.8585 18.0919 39.999 18.6174 40H32.3403C33.6764 40 34.816 39.0836 35.3431 37.7508L35.3382 37.7375L32.7347 36.5164ZM24.291 26.525L22.2222 27.4945L21.3597 29.8211C21.3366 29.8729 21.3012 29.9164 21.2573 29.9469C21.2135 29.9773 21.163 29.9934 21.1115 29.9934C21.0599 29.9934 21.0094 29.9773 20.9656 29.9469C20.9218 29.9164 20.8863 29.8729 20.8632 29.8211L20 27.4945L17.9312 26.525C17.885 26.4991 17.8461 26.4592 17.819 26.4098C17.7918 26.3604 17.7774 26.3034 17.7774 26.2453C17.7774 26.1872 17.7918 26.1303 17.819 26.0809C17.8461 26.0314 17.885 25.9915 17.9312 25.9656L20 24.9953L20.8625 22.6688C20.8856 22.617 20.9211 22.5734 20.9649 22.543C21.0087 22.5125 21.0592 22.4964 21.1108 22.4964C21.1623 22.4964 21.2128 22.5125 21.2566 22.543C21.3005 22.5734 21.3359 22.617 21.359 22.6688L22.2222 24.9953L24.291 25.9656C24.3372 25.9915 24.3761 26.0314 24.4033 26.0809C24.4304 26.1303 24.4448 26.1872 24.4448 26.2453C24.4448 26.3034 24.4304 26.3604 24.4033 26.4098C24.3761 26.4592 24.3372 26.4991 24.291 26.525ZM44.4444 33.743C44.4405 33.6469 44.4151 33.5535 44.3704 33.4715C44.3257 33.3896 44.2632 33.3217 44.1889 33.2742L40.7465 31.6594H40.7417L39.3056 27.7836C39.2672 27.697 39.2081 27.6242 39.135 27.5733C39.0619 27.5224 38.9776 27.4955 38.8917 27.4955C38.8057 27.4955 38.7214 27.5224 38.6483 27.5733C38.5752 27.6242 38.5161 27.697 38.4778 27.7836L37.0403 31.6609H37.0368L33.5903 33.2812C33.5159 33.3287 33.4535 33.3966 33.4088 33.4786C33.3641 33.5605 33.3386 33.6539 33.3347 33.75C33.3393 33.8454 33.365 33.9379 33.4097 34.0192C33.4543 34.1004 33.5164 34.1677 33.5903 34.2148L37.0326 35.8297H37.0375L38.4722 39.7039C38.5104 39.7907 38.5694 39.8638 38.6425 39.9148C38.7157 39.9659 38.8 39.993 38.8861 39.993C38.9722 39.993 39.0566 39.9659 39.1297 39.9148C39.2028 39.8638 39.2618 39.7907 39.3 39.7039L40.7368 35.8273H40.7431L44.184 34.2133C44.2579 34.1661 44.32 34.0988 44.3646 34.0176C44.4093 33.9364 44.435 33.8438 44.4396 33.7484L44.4444 33.743Z" fill="#090909"/>
</svg>
